<?xml version="1.0" encoding="utf-8"?>
<!-- Generator: Adobe Illustrator 27.9.6, SVG Export Plug-In . SVG Version: 9.03 Build 54986)  -->
<svg version="1.1" id="PATTERN" xmlns="http://www.w3.org/2000/svg" xmlns:xlink="http://www.w3.org/1999/xlink" x="0px" y="0px"
	 viewBox="0 0 780.9 679.2" style="enable-background:new 0 0 780.9 679.2;" xml:space="preserve">
<style type="text/css">
	.st0{fill:none;}
	.st1{fill:#FFFFFF;}
	.st2{fill:url(#SVGID_1_);}
</style>
<pattern  y="679.2" width="291.4" height="168.9" patternUnits="userSpaceOnUse" id="SVGID_2" viewBox="37.4 -201.3 291.4 168.9" style="overflow:visible;">
	<g>
		<rect x="37.4" y="-201.3" class="st0" width="291.4" height="168.9"/>
		<g>
			<rect x="37.4" y="-201.3" class="st0" width="291.4" height="168.9"/>
			<g>
				<rect x="37.4" y="-201.3" class="st0" width="291.4" height="168.9"/>
				<g>
					<rect x="37.4" y="-201.3" class="st0" width="291.4" height="168.9"/>
					<g>
						<rect x="37.4" y="-201.3" class="st0" width="291.3" height="168.9"/>
						<g>
							<path class="st1" d="M325.8-116.8l-32.1,6.5l10.4,31.1L325.8-116.8L325.8-116.8z M321.8-114l-17.2,29.9l-8.3-24.7L321.8-114
								C321.8-114,321.8-114,321.8-114z"/>
							<path class="st1" d="M351.9-75.8l-23.2-40.1l-23.2,40.1l23.2,26.2L351.9-75.8z M328.7-112l20.7,35.9l-20.7,23.4L308-76.1
								L328.7-112z"/>
							<polygon class="st1" points="338.5,-26.7 347.4,0 328.7,-21.1 310,0 319,-26.7 291.4,-32.3 319,-38 310,-64.7 328.7,-43.6 
								347.4,-64.7 338.5,-38 366.1,-32.3 							"/>
							<polygon class="st1" points="238.5,-26.7 243.4,-11.9 231.6,-32.3 243.4,-52.8 238.5,-38 266.1,-32.3 							"/>
							<path class="st1" d="M254.1-72l-10.4,31l32.1,6.5L254.1-72L254.1-72z M254.6-67.2l17.2,29.9l-25.5-5.2L254.6-67.2L254.6-67.2
								z"/>
							<path class="st1" d="M313.8-41l-11.1-33.2h-46.3l23.2,40.1L313.8-41L313.8-41z M301.2-72.1l10,29.6l-30.7,6.2l-20.7-35.9
								L301.2-72.1C301.2-72.1,301.2-72.1,301.2-72.1z"/>
							<path class="st1" d="M278.7-101.7L257-77.2h43.4L278.7-101.7L278.7-101.7z M278.7-98.7l17.2,19.5h-34.5
								C261.5-79.1,278.7-98.7,278.7-98.7z"/>
							<polygon class="st1" points="288.5,-113.4 297.4,-86.6 278.7,-107.7 268.4,-96 280.2,-116.5 303.8,-116.5 							"/>
						</g>
						<g>
							<polygon class="st1" points="122.7,-11.9 127.7,-26.7 100,-32.3 127.7,-38 122.7,-52.8 134.5,-32.3 							"/>
							<path class="st1" d="M122.4-41L112-72L90.3-34.5L122.4-41L122.4-41z M119.8-42.5l-25.5,5.2l17.2-29.9L119.8-42.5
								C119.8-42.5,119.8-42.5,119.8-42.5z"/>
							<path class="st1" d="M109.8-74.1H63.5L52.4-40.9L86.7-34L109.8-74.1C109.8-74.1,109.8-74.1,109.8-74.1z M64.9-72.1h41.4
								L85.6-36.2L55-42.5L64.9-72.1L64.9-72.1z"/>
							<path class="st1" d="M87.4-101.7L65.7-77.2h43.4C109.1-77.1,87.4-101.7,87.4-101.7z M87.4-98.7l17.2,19.5H70.2
								C70.2-79.1,87.4-98.7,87.4-98.7z"/>
							<polygon class="st1" points="97.8,-96 87.4,-107.7 71,-89.1 68.7,-86.6 77.7,-113.4 62.3,-116.5 85.9,-116.5 							"/>
							<path class="st1" d="M72.4-110.3l-32.1-6.5L62-79.3L72.4-110.3L72.4-110.3z M69.8-108.8l-8.3,24.7L44.3-114L69.8-108.8
								L69.8-108.8z"/>
							<path class="st1" d="M60.6-75.8l-23.2-40.1L14.2-75.8l23.2,26.2L60.6-75.8L60.6-75.8z M37.4-112l20.7,35.9L37.4-52.7
								L16.7-76.1L37.4-112z"/>
							<polygon class="st1" points="47.1,-26.7 56.1,0 37.4,-21.1 18.7,0 27.7,-26.7 0,-32.3 27.7,-38 18.7,-64.7 37.4,-43.6 
								56.1,-64.7 47.1,-38 74.8,-32.3 							"/>
						</g>
						<g>
							<polygon class="st1" points="338.5,-195.7 347.4,-168.9 328.7,-190.1 310,-168.9 319,-195.7 291.4,-201.3 319,-206.9 
								310,-233.7 328.7,-212.5 347.4,-233.7 338.5,-206.9 366.1,-201.3 							"/>
							<path class="st1" d="M351.9-157.8L328.7-184l-23.2,26.2l23.2,40.1C328.7-117.7,351.9-157.8,351.9-157.8z M328.7-181
								l20.7,23.4l-20.7,35.9L308-157.6L328.7-181z"/>
							<path class="st1" d="M304.1-154.4l-10.4,31l32.1,6.5L304.1-154.4L304.1-154.4z M304.6-149.5l17.2,29.9l-25.5-5.2L304.6-149.5
								C304.6-149.5,304.6-149.5,304.6-149.5z"/>
							<polygon class="st1" points="303.8,-117.2 280.2,-117.2 268.4,-137.6 278.7,-125.9 297.4,-147.1 288.5,-120.3 							"/>
							<path class="st1" d="M300.4-156.5h-43.3l21.7,24.5C278.7-132,300.4-156.5,300.4-156.5z M296-154.5L278.8-135l-17.2-19.5
								C261.5-154.5,296-154.5,296-154.5z"/>
							<path class="st1" d="M313.8-192.7l-34.3-6.9l-23.2,40.1h46.3L313.8-192.7L313.8-192.7z M280.5-197.4l30.7,6.2l-10,29.7h-41.4
								L280.5-197.4L280.5-197.4z"/>
							<path class="st1" d="M275.8-199.2l-32.1,6.5l10.4,31L275.8-199.2L275.8-199.2z M271.8-196.3l-17.2,29.9l-8.3-24.7
								L271.8-196.3L271.8-196.3z"/>
							<polygon class="st1" points="238.5,-195.7 243.4,-180.9 231.6,-201.3 243.4,-221.8 238.5,-206.9 266.1,-201.3 							"/>
						</g>
						<g>
							<path class="st1" d="M218.1-38.9l-10.4-31L186-32.4L218.1-38.9L218.1-38.9L218.1-38.9z M215.5-40.4L190-35.2l17.2-29.9
								L215.5-40.4L215.5-40.4z"/>
							<polygon class="st1" points="243.5,-53.2 231.6,-32.7 208,-32.7 223.4,-35.8 214.4,-62.6 233.1,-41.5 							"/>
							<path class="st1" d="M254.7-72h-43.3l21.7,24.5L254.7-72z M250.3-70l-17.2,19.5L215.9-70H250.3z"/>
							<path class="st1" d="M232.3-115.1l-34.3,6.9L209.1-75h46.3L232.3-115.1L232.3-115.1z M200.6-106.7l30.7-6.2L252-77h-41.4
								L200.6-106.7L200.6-106.7L200.6-106.7z"/>
							<path class="st1" d="M268.1-108.2l-32.1-6.5l21.7,37.5L268.1-108.2L268.1-108.2z M265.5-106.7L257.2-82L240-111.9
								L265.5-106.7L265.5-106.7z"/>
							<polygon class="st1" points="268.4,-96.4 273.4,-111.2 245.7,-116.8 273.4,-122.4 268.4,-137.3 280.2,-116.8 							"/>
							<path class="st1" d="M268.1-125.5l-10.4-31L236-118.9L268.1-125.5L268.1-125.5L268.1-125.5z M265.5-127l-25.5,5.2l17.2-29.9
								L265.5-127C265.5-127,265.5-127,265.5-127z"/>
							<path class="st1" d="M255.5-158.6h-46.3L198-125.5l34.3,6.9L255.5-158.6L255.5-158.6z M210.6-156.6H252l-20.7,35.9l-30.7-6.2
								C200.6-127,210.6-156.6,210.6-156.6L210.6-156.6z"/>
							<path class="st1" d="M233.1-186.2l-21.7,24.5h43.4L233.1-186.2L233.1-186.2z M233.1-183.1l17.2,19.5h-34.5L233.1-183.1
								L233.1-183.1z"/>
							<polygon class="st1" points="243.4,-180.5 233.1,-192.2 216.6,-173.6 214.4,-171 223.4,-197.8 208,-200.9 231.6,-200.9 
															"/>
							<path class="st1" d="M218.1-194.8l-32.1-6.5l21.7,37.5L218.1-194.8L218.1-194.8z M215.5-193.3l-8.3,24.7L190-198.5
								L215.5-193.3L215.5-193.3z"/>
							<path class="st1" d="M180.1-201.3l-32.1,6.5l10.4,31L180.1-201.3z M176.1-198.5l-17.2,29.9l-8.3-24.7L176.1-198.5
								L176.1-198.5z"/>
							<path class="st1" d="M206.2-160.3L183-200.4l-23.2,40.1l23.2,26.2L206.2-160.3C206.2-160.3,206.2-160.3,206.2-160.3z
								 M183.1-196.4l20.7,35.9l-20.7,23.4l-20.7-23.4L183.1-196.4L183.1-196.4z"/>
							<polygon class="st1" points="192.8,-111.2 201.8,-84.5 183.1,-105.6 164.4,-84.5 173.4,-111.2 145.7,-116.8 173.4,-122.4 
								164.4,-149.2 183.1,-128 201.8,-149.2 192.8,-122.4 220.5,-116.8 							"/>
							<path class="st1" d="M206.2-73.3L183-99.5l-23.2,26.2L183-33.2C183-33.2,206.2-73.3,206.2-73.3z M183.1-96.5l20.7,23.4
								l-20.7,35.9l-20.7-35.9L183.1-96.5L183.1-96.5z"/>
							<path class="st1" d="M158.4-69.9l-10.4,31l32.1,6.5L158.4-69.9L158.4-69.9z M158.9-65.1l17.2,29.9l-25.5-5.2L158.9-65.1
								L158.9-65.1z"/>
							<polygon class="st1" points="158.1,-32.7 134.5,-32.7 122.7,-53.2 133.1,-41.5 151.8,-62.6 142.8,-35.8 							"/>
							<path class="st1" d="M154.7-72h-43.3l21.7,24.5C133.1-47.5,154.7-72,154.7-72z M150.3-70l-17.2,19.5L115.9-70H150.3z"/>
							<path class="st1" d="M168.1-108.2l-34.3-6.9L110.6-75H157L168.1-108.2L168.1-108.2z M134.8-112.9l30.7,6.2L155.6-77h-41.4
								L134.8-112.9L134.8-112.9z"/>
							<path class="st1" d="M130.1-114.7L98-108.2l10.4,31L130.1-114.7L130.1-114.7z M126.2-111.9L109-82l-8.3-24.7L126.2-111.9
								L126.2-111.9z"/>
							<polygon class="st1" points="92.8,-111.2 97.8,-96.4 86,-116.8 97.8,-137.3 92.8,-122.4 120.5,-116.8 							"/>
							<path class="st1" d="M108.4-156.5l-10.4,31l32.1,6.5L108.4-156.5L108.4-156.5z M108.9-151.6l17.2,29.8l-25.5-5.2L108.9-151.6
								C108.9-151.6,108.9-151.6,108.9-151.6z"/>
							<path class="st1" d="M168.1-125.5L157-158.6h-46.3l23.2,40.1L168.1-125.5L168.1-125.5z M155.6-156.6l9.9,29.6l-30.7,6.2
								l-20.7-35.9C114.1-156.6,155.6-156.6,155.6-156.6z"/>
							<path class="st1" d="M133.1-186.2l-21.7,24.5h43.4C154.8-161.6,133.1-186.2,133.1-186.2z M133.1-183.1l17.2,19.5h-34.5
								L133.1-183.1z"/>
							<polygon class="st1" points="142.8,-197.8 151.8,-171 133.1,-192.2 122.7,-180.5 134.5,-200.9 158.1,-200.9 							"/>
						</g>
						<g>
							<path class="st1" d="M72.4-123.3L62-154.4l-21.7,37.5L72.4-123.3z M69.8-124.9l-25.5,5.2l17.2-29.8L69.8-124.9
								C69.8-124.9,69.8-124.9,69.8-124.9z"/>
							<polygon class="st1" points="97.8,-137.7 85.9,-117.2 62.3,-117.2 77.7,-120.3 68.7,-147.1 87.4,-125.9 							"/>
							<path class="st1" d="M109.1-156.5H65.7L87.4-132L109.1-156.5L109.1-156.5z M104.6-154.5L87.4-135l-17.2-19.5H104.6z"/>
							<path class="st1" d="M86.6-199.6l-34.3,7l11.1,33.2h46.3C109.7-159.4,86.6-199.6,86.6-199.6z M55-191.2l30.7-6.2l20.7,35.9
								H64.9L55-191.2L55-191.2z"/>
							<path class="st1" d="M122.4-192.7l-32.1-6.5l21.7,37.6L122.4-192.7L122.4-192.7L122.4-192.7z M119.8-191.2l-8.3,24.7
								l-17.2-29.8C94.3-196.3,119.8-191.2,119.8-191.2z"/>
							<polygon class="st1" points="122.7,-180.8 127.7,-195.7 100,-201.3 127.7,-206.9 122.7,-221.8 134.5,-201.3 							"/>
							<polygon class="st1" points="47.1,-195.7 56.1,-168.9 37.4,-190.1 18.7,-168.9 27.7,-195.7 0,-201.3 27.7,-206.9 
								18.7,-233.7 37.4,-212.5 56.1,-233.7 47.1,-206.9 74.8,-201.3 							"/>
							<path class="st1" d="M60.6-157.8L37.4-184l-23.2,26.2l23.2,40.1L60.6-157.8L60.6-157.8z M37.4-181l20.7,23.4l-20.7,35.9
								l-20.7-35.9L37.4-181z"/>
						</g>
					</g>
				</g>
			</g>
		</g>
	</g>
</pattern>
<pattern  id="SVGID_1_" xlink:href="#SVGID_2" patternTransform="matrix(0.67 0 0 0.67 -12384.2539 16303.7119)">
</pattern>
<rect class="st2" width="780.9" height="679.2"/>
</svg>
